<?xml version="1.0" encoding="UTF-8"?>
<svg id="_レイヤー_2" data-name="レイヤー 2" xmlns="http://www.w3.org/2000/svg" viewBox="0 0 1110.35 280.37">
  <defs>
    <style>
      .cls-1 {
        fill: #050000;
      }

      .cls-2 {
        fill: #fafafa;
      }

      .cls-3 {
        fill: #fdfdfe;
      }

      .cls-4 {
        fill: #231815;
      }
    </style>
  </defs>
  <g id="_レイヤー_1-2" data-name="レイヤー 1">
    <g>
      <path class="cls-4" d="M19.57,279.98l18.51-33.69,23.83,1.95c9.63-5.86,16.76-13.54,21.39-23.05,4.62-9.5,7.91-23.31,9.86-41.41l.39-4.1c.52-4.95,.78-10.35,.78-16.21,0-32.16-6.67-63.28-20.02-93.36-13.35-30.08-27.18-45.12-41.5-45.12-10.81,0-19.73,8.2-26.76,24.61-4.04-1.3-6.05-3.84-6.05-7.62,0-7.94,5.3-16.92,15.92-26.95C26.53,5.01,36.07,0,44.53,0c17.58,0,34.01,13.35,49.32,40.04,15.3,26.69,25.49,59.77,30.57,99.22,10.67-38.93,26.95-71.88,48.83-98.83S216.53,0,237.5,0c8.2,0,16.14,2.61,23.83,7.81l-22.07,30.27c-5.6-3.52-11.65-5.27-18.16-5.27-19.4,0-39.23,15.85-59.47,47.56-20.25,31.71-32.59,66.18-37.01,103.42l-.39,4.1c-1.95,16.28-5.7,28.22-11.23,35.84-5.54,7.62-16.7,16.18-33.5,25.68l60.55,2.73-11.22,27.83H19.57Z"/>
      <path class="cls-4" d="M543.38,207.42c.45-3.06-3.66-4.48-5.2-1.8-12.41,21.58-24.99,47.88-40.61,61.19-18.64,15.89-39.09,13.17-50.82,13.17-12.91,0-24.56-7.46-24.56-24.63,0-6.37,5.08-23.55,6.78-38.12l10.81-62.8c.13-.91,.46-4.68,.97-11.32l1.17-12.68c.39-3.77,.59-7.15,.59-10.14,0-7.54-2.15-11.32-6.44-11.32-9.35,0-19.39,9.89-30.13,29.66-1.07,1.97-3.96,2-4.94,0-.43-.88-.64-1.77-.64-2.7,0-8.07,7.2-18.81,21.59-32.23,14.4-13.41,21.43-18.47,29.9-18.47,10.81,0,20.61,5.77,20.61,20.61,0,3.52-.26,7.62-.78,12.3l-1.76,15.04-1.72,16.41-6.09,55.86c-1.04,9.51-1.56,19.14-1.56,28.91,0,8.98,3.31,13.48,9.93,13.48,14.67,0,31.25-12.11,49.74-36.33,18.49-24.22,29.43-48.17,32.8-71.88l6.98-36.23c.17-.87,.73-1.61,1.53-1.99l27.8-13.44c2.23-1.08,4.66,1.06,3.87,3.42-4.82,14.57-14.33,33.21-15.98,43.55-.01,.08-.02,.16-.03,.25l-5.73,69.35c-.66,4.94-1.18,9.11-1.57,12.49l-1.37,10.73c-.79,6.63-1.18,11.32-1.18,14.04,0,5.59,1.56,8.39,4.69,8.39,10.62,0,31.76-43.86,43.57-68.9,.78-1.66,2.96-2.17,4.33-.95,1.58,1.4,2.36,2.79,2.36,4.18,0,4.56-16.87,49.14-28.21,62.94-15.24,18.75-29.38,28.12-42.41,28.12-9.51,0-14.27-6.38-14.27-19.14,0-4.03,.46-9.44,1.37-16.21l2.2-15.62c1.2-8.46,2-14.19,2.41-17.19h0Z"/>
      <path class="cls-4" d="M720.99,165.82c28.89-54.82,57.33-82.23,85.31-82.23,7.29,0,14.58,1.69,21.87,5.08l-27.52,30.08c-4.17-2.34-9.5-3.52-16-3.52-13.53,0-27.81,10.97-42.84,32.91-15.03,21.94-23.84,44.76-26.44,68.46l-3.95,47.87c-1.09,7.7-6.88,13.9-14.5,15.51h-25.86l.63-3.5,1.37-12.7,1.56-12.7,20.19-101.29,1.18-10.16c.91-7.68,1.37-13.93,1.37-18.75,0-7.94-2.22-11.91-6.65-11.91-10.43,0-53.4,47.02-63.7,69.29-3.26-2.47-4.82-5.01-4.69-7.62,.39-7.94,36.47-52.18,54.42-67.43,16.34-13.89,23.37-17.98,31.59-17.98,11.08,0,18.6,5.64,18.6,20.22,0,3.52-.33,8.27-.98,14.26l-1.37,13.67-1.79,16.41-1.8,16.02Z"/>
      <path class="cls-4" d="M920.9,235.94l33.25-20.12c5.21,32.03,24.44,48.05,57.69,48.05,16.17,0,29.4-4.39,39.7-13.18,10.3-8.79,15.45-20.08,15.45-33.89,0-18.88-11.42-37.63-34.24-56.25l-23.68-19.14c-19.05-15.62-31.77-27.96-38.16-37.01-6.39-9.05-9.59-19.24-9.59-30.57,0-21.35,8.53-39,25.59-52.93,17.06-13.93,38.6-20.9,64.65-20.9,20.7,0,40.3,4.95,58.79,14.84l-11.33,25.98-5.08,11.52c-2.87,6.77-6.25,10.16-10.16,10.16-1.69,0-3.45-.65-5.27-1.96,2.21-6.8,3.32-12.22,3.32-16.27,0-8.37-4.59-15.36-13.77-20.98s-20.54-8.44-34.08-8.44c-30.73,0-46.09,12.7-46.09,38.11,0,9.12,3.42,17.89,10.25,26.29s21.06,21.4,42.68,38.99l18.95,15.64c24.09,19.55,36.13,40.07,36.13,61.57,0,23.72-10,43.46-29.98,59.23-19.99,15.77-44.96,23.65-74.9,23.65-36.46,0-59.83-14.13-70.12-42.38Z"/>
    </g>
    <path class="cls-4" d="M243.71,280.37c-35.76,0-43.46-22.82-43.46-62.29,0-31.79,3.37-63.71,31.34-93.18,27.97-29.47,98.05-43.01,127.9-39.66,36.42,4.09-4.23,.2-4.23,39.66,0,31.92,4.14,81.96-23.83,111.37-27.97,29.4-57.21,44.1-87.73,44.1Zm28.84-22.25c18.27,0,33.57-8.47,45.89-25.43,12.31-16.95,18.48-38.07,18.48-63.37,0-41.32-15.42-61.98-46.25-61.98-18.12,0-33.34,8.51-45.65,25.53-12.32,17.02-18.47,38.11-18.47,63.27,0,41.32,15.34,61.98,46.01,61.98Z"/>
  </g>
  <g id="_イラスト" data-name="イラスト">
    <path class="cls-1" d="M861.9,86.47c-15.81-14.75,7.91-96,21.46-55.34,12.71-29.72,35.58-27.18,24.05,9.4-11.12,35.27-45.51,45.94-45.51,45.94Z"/>
    <circle class="cls-4" cx="306.19" cy="156.88" r="10.59"/>
    <ellipse class="cls-3" cx="306.19" cy="156.88" rx="2.91" ry="3.34"/>
    <circle class="cls-4" cx="492.19" cy="156.88" r="10.59"/>
    <ellipse class="cls-2" cx="492.19" cy="156.88" rx="3.55" ry="3.48"/>
  </g>
</svg>